{"title":"Division III Footballs Finest 2011 BRRip XviD Ac3 Feel-Free","uid":6968446,"size":1386660837,"categoryP":"video","categoryS":"movies","magnet":"?xt=urn:btih:86d9e7974a2210b0119c5073887f133a09dd339b&amp;dn=Division+III+Footballs+Finest+2011+BRRip+XviD+Ac3+Feel-Free&amp;tr=udp%3A%2F%2Ftracker.openbittorrent.com%3A80&amp;tr=udp%3A%2F%2Fopen.demonii.com%3A1337&amp;tr=udp%3A%2F%2Ftracker.coppersurfer.tk%3A6969&amp;tr=udp%3A%2F%2Fexodus.desync.com%3A6969","seeders":1,"leechers":0,"uploader":".BONE.","files":9,"time":1327000686,"description":"Genre:Comedy | Romance | Sport\nLanguage:English\n &lt;a href=&quot;\nhttp://www.imdb.com/title/tt1562849/&quot; rel=&quot;nofollow&quot; target=&quot;_NEW&quot;&gt;\nhttp://www.imdb.com/title/tt1562849/&lt;/a&gt;\n\nSource:720p.BluRay.x264-MELiTE Thanks!\n\nFormat : AVI\nFormat/Info : Audio Video Interleave\nFile size : 1.29 GiB\nDuration : 1h 38mn\nOverall bit rate : 1 882 Kbps\n\nVideo\nID : 0\nFormat : MPEG-4 Visual\nFormat profile : Advanced Simple@L5\nFormat settings, BVOP : 1\nFormat settings, QPel : No\nFormat settings, GMC : No warppoints\nFormat settings, Matrix : Default (H.263)\nCodec ID : XVID\nCodec ID/Hint : XviD\nDuration : 1h 38mn\nBit rate : 1 424 Kbps\nWidth : 640 pixels\nHeight : 360 pixels\nDisplay aspect ratio : 16:9\nFrame rate : 23.976 fps\nColor space : YUV\nChroma subsampling : 4:2:0\nBit depth : 8 bits\nScan type : Progressive\nCompression mode : Lossy\nBits/(Pixel*Frame) : 0.258\nStream size : 1 000 MiB (76%)\nWriting library : XviD 1.2.1 (UTC 2008-12-04)\n\nAudio\nID : 1\nFormat : AC-3\nFormat/Info : Audio Coding 3\nMode extension : CM (complete main)\nCodec ID : 2000\nDuration : 1h 38mn\nBit rate mode : Constant\nBit rate : 448 Kbps\nChannel(s) : 6 channels\nChannel positions : Front: L C R, Side: L R, LFE\nSampling rate : 48.0 KHz\nBit depth : 16 bits\nCompression mode : Lossy\nStream size : 314 MiB (24%)\nAlignment : Aligned on interleaves\nInterleave, duration : 42 ms (1.00 video frame)\nInterleave, preload duration : 512 ms\n\n\nPlot:\nThis ensemble comedy follows the Pullham University Bluecocks, a small liberal arts college with a Division III football program (the lowest division in the NCAA).\n","torrent":{"xt":"urn:btih:86d9e7974a2210b0119c5073887f133a09dd339b","amp;dn":"Division+III+Footballs+Finest+2011+BRRip+XviD+Ac3+Feel-Free","amp;tr":["udp%3A%2F%2Ftracker.openbittorrent.com%3A80","udp%3A%2F%2Fopen.demonii.com%3A1337","udp%3A%2F%2Ftracker.coppersurfer.tk%3A6969","udp%3A%2F%2Fexodus.desync.com%3A6969"],"infoHash":"86d9e7974a2210b0119c5073887f133a09dd339b","infoHashBuffer":{"type":"Buffer","data":[134,217,231,151,74,34,16,176,17,156,80,115,136,127,19,58,9,221,51,155]},"announce":[],"urlList":[]}}